<?xml version="1.0" standalone="no"?>
<!DOCTYPE svg PUBLIC "-//W3C//DTD SVG 20010904//EN"
 "http://www.w3.org/TR/2001/REC-SVG-20010904/DTD/svg10.dtd">
<svg version="1.0" xmlns="http://www.w3.org/2000/svg"
 width="1280.000000pt" height="1280.000000pt" viewBox="0 0 1280.000000 1280.000000"
 preserveAspectRatio="xMidYMid meet">
<g transform="translate(0.000000,1280.000000) scale(0.100000,-0.100000)"
fill="#000000" stroke="none">
<path d="M6145 12790 c-44 -4 -150 -13 -235 -20 -2036 -155 -3876 -1277 -4952
-3020 -528 -855 -853 -1856 -928 -2855 -6 -82 -15 -197 -20 -255 -13 -134 -13
-346 0 -480 5 -58 14 -172 20 -255 90 -1196 527 -2361 1252 -3330 1101 -1473
2788 -2403 4618 -2545 80 -6 195 -15 256 -20 141 -13 350 -13 484 0 58 5 173
14 255 20 1830 137 3531 1076 4635 2560 715 961 1151 2127 1240 3315 6 83 15
197 20 255 6 58 10 166 10 240 0 74 -4 182 -10 240 -5 58 -14 173 -20 255
-137 1831 -1076 3531 -2560 4635 -961 715 -2127 1151 -3315 1240 -82 6 -197
15 -255 20 -119 11 -376 11 -495 0z m551 -520 c417 -24 767 -77 1158 -177 798
-202 1575 -589 2221 -1107 668 -535 1196 -1191 1584 -1966 628 -1258 783
-2683 440 -4051 -330 -1319 -1110 -2484 -2204 -3294 -382 -283 -882 -561
-1317 -734 -1165 -462 -2417 -542 -3632 -234 -402 101 -762 236 -1151 428
-954 473 -1728 1158 -2311 2045 -510 777 -823 1653 -929 2600 -119 1067 79
2201 559 3186 464 952 1143 1731 2026 2324 294 198 749 437 1082 569 788 312
1661 457 2474 411z"/>
<path d="M6160 9268 c0 -1157 -4 -2108 -8 -2115 -4 -6 -33 -23 -65 -37 -196
-86 -364 -267 -431 -462 -35 -103 -49 -203 -45 -321 l4 -105 -1088 -628 c-599
-346 -1091 -631 -1094 -634 -3 -3 48 -98 113 -211 86 -150 123 -205 134 -202
9 2 500 284 1093 626 592 341 1082 621 1089 621 8 0 38 -19 68 -42 30 -22 93
-59 139 -81 385 -181 842 -22 1035 361 63 125 81 207 80 362 -1 123 -3 143
-31 228 -72 215 -229 393 -430 483 -37 17 -71 36 -75 43 -4 6 -8 957 -8 2114
l0 2102 -240 0 -240 0 0 -2102z"/>
</g>
</svg>
